<?xml version="1.0" encoding="UTF-8"?>
<svg version="1.1" xmlns="http://www.w3.org/2000/svg" width="3665" height="2985">
<path d="M0 0 C1.9824301 0.47302031 3.96518142 0.9446738 5.94798851 1.41611099 C11.70467718 2.78819175 17.45426605 4.17897507 23.18939781 5.63873672 C24.15719673 5.88113083 25.12499565 6.12352493 26.12212181 6.37326431 C27.86476753 6.81110365 29.60498478 7.25880778 31.34175682 7.71939468 C37.65555458 9.29341272 43.05738377 9.22910375 48.98285484 6.19244766 C49.74678551 5.81177139 50.51071617 5.43109512 51.29779625 5.03888321 C52.12199059 4.62034073 52.94618492 4.20179825 53.79535484 3.77057266 C101.10179251 -19.40848106 152.01075326 -36.2965518 202.79535484 -49.97942734 C203.49541649 -50.16893967 204.19547813 -50.358452 204.91675377 -50.55370712 C276.42418323 -69.86956367 350.017485 -79.8564891 423.79535484 -84.97942734 C424.66031578 -85.04108078 425.52527672 -85.10273422 426.41644859 -85.16625595 C482.04467633 -89.10958127 539.17511626 -88.9430776 594.79535484 -84.97942734 C596.68630447 -84.84920603 598.57725503 -84.71899821 600.46820641 -84.58880234 C686.87155519 -78.53738297 772.64539262 -63.75880148 883.53851891 -20.02776718 C885.70735516 -19.02030473 887.88579966 -18.03779474 890.06879234 -17.06145859 C927.9204875 0.03570854 969.00091848 26.60721564 985.67035484 66.39557266 C993.31870109 87.9379735 992.4175393 110.91108657 983.79535484 132.02057266 C972.11069834 156.35146589 949.07902731 171.01460016 924.42377281 179.87262344 C894.6423449 189.97474748 862.60969137 194.05625734 831.25629234 194.25885391 C829.36230705 194.27368065 829.36230705 194.27368065 827.43005943 194.28880692 C797.66399087 194.47334497 768.35958986 193.83816909 738.79535484 190.02057266 C737.76309776 189.8895314 736.73084068 189.75849014 735.66730309 189.62347794 C649.09682828 178.61785423 563.34037905 161.43489803 203.79535484 79.70807266 C202.75956795 79.45735504 201.72378105 79.20663742 200.65660667 78.9483223 C194.65518284 77.49541994 188.65406764 76.04125159 182.65334892 74.58543968 C180.83256196 74.1437419 179.01172794 73.70223808 177.19083977 73.26095772 C175.48320404 72.84702607 173.77567593 72.43265014 172.0682621 72.01780415 C170.42749865 71.61949604 168.78638919 71.22261016 167.14491463 70.82724285 C162.8653423 69.79128314 158.60260361 68.71058499 154.34955406 67.5702858 C153.45070992 67.33343724 152.55186577 67.09658869 151.62578392 66.8525629 C149.91429571 66.39998923 148.2055013 65.93704616 146.50020409 65.4616766 C140.68970369 63.93760694 135.90689505 63.63587457 130.25092125 66.15289688 C129.47409996 66.62227676 128.69727867 67.09165665 127.89691734 67.57526016 C126.57337242 68.36489151 126.57337242 68.36489151 125.22308922 69.17047501 C124.29818687 69.73975723 123.37328453 70.30903946 122.42035484 70.89557266 C120.95952477 71.77849991 120.95952477 71.77849991 119.46918297 72.67926407 C110.79490467 77.95066565 102.23374199 83.37987167 93.79535484 89.02057266 C92.95005211 89.5850209 92.10474937 90.14946915 91.23383141 90.73102188 C72.4227254 103.33385325 54.18516909 116.51210263 36.79535484 131.02057266 C36.20496422 131.51186661 35.61457359 132.00316055 35.00629234 132.50934219 C27.79323587 138.52359191 20.73127126 144.68777941 13.79535484 151.02057266 C12.86207359 151.86104141 11.92879234 152.70151016 10.96722984 153.56744766 C1.35053806 162.25579544 -8.15583053 171.19280346 -16.54839516 181.08697891 C-18.46450093 183.32394202 -20.45977372 185.47860844 -22.45464516 187.64557266 C-28.03776408 193.85008425 -33.15230641 200.38418839 -38.20464516 207.02057266 C-38.75314125 207.73922501 -39.30163734 208.45787735 -39.86675453 209.19830704 C-78.47248587 260.01828105 -103.47169034 319.34782199 -110.20464516 383.02057266 C-110.29890785 383.8536293 -110.39317055 384.68668594 -110.49028969 385.54498672 C-111.5237417 395.9238769 -111.44835553 406.35079623 -111.45464516 416.77057266 C-111.4553199 417.77401718 -111.45599464 418.7774617 -111.45668983 419.81131363 C-111.4095596 463.9291802 -102.03758052 507.21901016 -70.48198891 539.84479141 C-64.8403266 545.44843946 -58.60931224 550.3255252 -52.20464516 555.02057266 C-51.27265297 555.70764297 -50.34066078 556.39471329 -49.38042641 557.10260391 C-40.0550928 563.35365171 -29.26637438 560.9150259 -18.47251701 560.15553474 C-16.15836535 559.99278142 -13.84395864 559.83421502 -11.52944374 559.67671585 C-8.22002651 559.45138164 -4.91070325 559.22473375 -1.60143471 558.99722672 C219.76879964 543.82446906 219.76879964 543.82446906 259.79535484 575.02057266 C264.62322469 579.75985774 267.91902391 583.31330227 268.23285484 590.20807266 C268.17108157 594.14611906 267.90731106 596.73959948 265.48285484 599.89557266 C247.14582255 617.6397217 208.41083443 614.40554728 185.23285484 614.33307266 C183.40811638 614.33033844 183.40811638 614.33033844 181.54651451 614.32754898 C111.1900987 614.15157483 38.55627015 605.29707797 -29.42998695 586.87921524 C-41.02209185 584.24229441 -54.37029236 588.28297782 -65.89214516 590.45807266 C-67.28750496 590.71925888 -67.28750496 590.71925888 -68.71105385 590.98572159 C-89.7198795 594.93788573 -110.48889305 599.75731537 -131.20464516 605.02057266 C-131.99917091 605.22188797 -132.79369667 605.42320328 -133.61229897 605.63061905 C-159.1208036 612.1110085 -184.21440455 619.77670678 -209.20464516 628.02057266 C-210.02015846 628.28954361 -210.83567177 628.55851456 -211.6758976 628.83563614 C-283.40571819 652.54652111 -353.10233971 682.24088367 -421.09917641 715.07916641 C-425.13042159 717.02574984 -429.16906138 718.95525898 -433.21636391 720.86822891 C-443.67366848 725.81604074 -454.00832751 730.91715918 -464.21245766 736.36822891 C-467.83718079 738.30371088 -471.47987951 740.20041919 -475.13433266 742.07916641 C-488.36353112 748.88366832 -501.37680662 755.97949851 -514.28911781 763.36578751 C-517.25391561 765.04853742 -520.23220195 766.7044616 -523.21636391 768.35260391 C-539.14533764 777.15729064 -554.73593924 786.43713275 -570.20464516 796.02057266 C-571.12713051 796.59178848 -572.04961586 797.1630043 -573.00005531 797.75152969 C-585.66923512 805.63198326 -598.09565833 813.88272378 -610.51714516 822.14557266 C-611.64515541 822.89485535 -611.64515541 822.89485535 -612.79595375 823.65927505 C-626.99489228 833.09968292 -641.0015843 842.80853619 -654.70464516 852.95807266 C-655.48815346 853.53742569 -656.27166176 854.11677872 -657.07891273 854.7136879 C-670.13112091 864.39089104 -682.93007168 874.32782328 -695.49614906 884.62799454 C-697.75565259 886.46969332 -700.04183894 888.27671343 -702.32964516 890.08307266 C-707.52262502 894.22529907 -712.54881465 898.55484417 -717.57573891 902.89557266 C-719.90962125 904.91082987 -722.25475264 906.91103267 -724.61480141 908.89557266 C-733.36374394 916.27265077 -741.70258918 924.03324631 -749.99175453 931.92096329 C-752.24773182 934.06145365 -754.51348316 936.19107747 -756.78277016 938.31744766 C-757.53389076 939.02159805 -758.28501137 939.72574844 -759.0588932 940.45123672 C-760.47898922 941.78199779 -761.89967656 943.11212824 -763.32110023 944.4414711 C-769.31217127 950.06709788 -775.28662502 955.7155727 -780.64214516 961.95807266 C-783.21129786 964.94858982 -785.89781772 967.7517395 -788.70464516 970.52057266 C-792.09732914 973.87314045 -795.295652 977.31532948 -798.39995766 980.93463516 C-800.42115791 983.27082767 -802.49843355 985.55022117 -804.57964516 987.83307266 C-808.42514698 992.09937855 -812.10195782 996.47226566 -815.71245766 1000.93854141 C-817.50858125 1003.15976635 -819.31473051 1005.36957643 -821.13433266 1007.57135391 C-880.36821801 1079.46205237 -923.46997261 1163.00365784 -958.20464516 1333.02057266 C-958.32323891 1334.17750626 -958.44183266 1335.33443985 -958.56402016 1336.52643204 C-967.97082489 1431.77032994 -951.92925112 1533.11157049 -890.20464516 1609.02057266 C-887.44221339 1612.23977016 -884.56472941 1615.33764812 -881.65386391 1618.42291641 C-879.60348665 1620.59755896 -877.64021148 1622.80728803 -875.70464516 1625.08307266 C-868.77105553 1633.04019219 -861.25391027 1640.21842453 -852.99761391 1646.78619766 C-850.13622177 1649.07531137 -847.36224359 1651.44907291 -844.57964516 1653.83307266 C-796.72832535 1693.67838015 -736.98292181 1717.21396732 -677.73394203 1734.01276016 C-673.2105803 1735.30443401 -668.70431487 1736.64888614 -664.20464516 1738.02057266 C-664.76152016 1737.05119766 -665.31839516 1736.08182266 -665.89214516 1735.08307266 C-711.5783574 1655.05148354 -724.34321526 1563.8177449 -697.17730141 1384.46197891 C-684.46172442 1338.61344166 -665.71360409 1294.36677285 -642.20464516 1253.02057266 C-641.63181801 1252.01107559 -641.05899086 1251.00157852 -640.46880531 1249.96149063 C-617.7205868 1210.1382786 -591.00342277 1172.74740795 -561.27886391 1137.8465004 C-558.46275509 1134.53415018 -555.72396863 1131.17343645 -553.01714516 1127.77057266 C-548.31568345 1121.98088835 -543.20022176 1116.60128218 -538.05156898 1111.20904922 C-537.398256 1110.52423477 -536.74494301 1109.83942032 -536.07183266 1109.13385391 C-535.49546059 1108.53355362 -534.91908852 1107.93325333 -534.32525063 1107.31476212 C-532.53678305 1105.37989799 -530.81931015 1103.41057547 -529.1033268 1101.41217422 C-524.6135444 1096.2645718 -519.79194715 1091.46446312 -514.95855141 1086.64166641 C-513.97866463 1085.66110385 -512.99892615 1084.68039307 -512.01932716 1083.699543 C-509.97781876 1081.65657054 -507.9345395 1079.61539097 -505.88994789 1077.5755043 C-503.29012112 1074.981374 -500.69481143 1072.38277833 -498.10082531 1069.78280926 C-496.0821512 1067.76049441 -494.06106783 1065.74060077 -492.03928375 1063.72139549 C-490.62232192 1062.3054102 -489.20734699 1060.88743751 -487.79242897 1059.46940994 C-483.29569237 1054.98882221 -478.75500415 1050.6289103 -473.92736244 1046.50517654 C-470.99581981 1043.97883075 -468.20656985 1041.30068263 -465.39214516 1038.64557266 C-460.37121175 1033.94227504 -455.22124654 1029.49872926 -449.84917641 1025.19635391 C-447.04625268 1022.89025566 -444.37461241 1020.47905736 -441.70464516 1018.02057266 C-436.89274082 1013.60175347 -431.92194883 1009.44823505 -426.83745766 1005.34869766 C-424.99033732 1003.84625528 -423.15936671 1002.32540403 -421.32964516 1000.80182266 C-412.87057251 993.7659285 -404.28895364 986.94320566 -395.51714516 980.30182266 C-391.82241564 977.50217334 -388.16932291 974.65269467 -384.52324867 971.79010391 C-375.66951388 964.8458479 -366.66337364 958.15433717 -357.48784828 951.64166641 C-355.9844781 950.57426073 -354.48311791 949.50401754 -352.98394203 948.43072891 C-316.93261754 922.63021847 -279.12017733 899.23306198 -240.20464516 878.02057266 C-238.7377726 877.21547256 -238.7377726 877.21547256 -237.24126625 876.39410782 C-164.03230767 836.2788478 -85.65653131 806.11345465 167.79535484 761.02057266 C168.6161956 760.97927231 169.43703636 760.93797195 170.28275108 760.89542007 C186.14418608 760.11186332 201.97803072 759.81755773 217.85785484 759.83307266 C219.01378136 759.83367691 220.16970787 759.83428116 221.36066246 759.83490372 C239.58365925 759.86064507 257.64866246 760.21668752 275.79535484 762.02057266 C277.10697594 762.14947891 278.41859703 762.27838516 279.76996422 762.41119766 C325.70401121 767.04012022 370.83351107 777.43450431 412.79535484 797.02057266 C413.72090172 797.4524086 414.64644859 797.88424454 415.60004234 798.32916641 C433.3142522 806.69007499 449.83839192 816.67583936 465.79535484 828.02057266 C466.12535484 826.70057266 466.45535484 825.38057266 466.79535484 824.02057266 C478.20697209 823.96842727 489.61280624 823.97436628 501.02191734 824.23932266 C529.9214032 824.90464406 558.81850096 825.18264321 587.72522545 825.2527504 C591.80963875 825.26297308 595.89392087 825.28023706 599.97827721 825.30401993 C623.11900786 825.4327534 645.82997444 825.13566564 668.79535484 822.02057266 C669.66994347 821.90461746 670.54453209 821.78866226 671.4456234 821.66919327 C676.43584282 820.99365645 681.39791379 820.20150516 686.35785484 819.33307266 C687.08961937 819.20774155 687.8213839 819.08241043 688.5753231 818.9532814 C728.59964222 812.08072434 768.1280432 802.24368376 806.84711266 790.01715469 C808.10620445 789.62254044 809.36529625 789.22792618 810.66254234 788.82135391 C811.75679527 788.47242081 812.8510482 788.1234877 813.97846031 787.76398087 C816.79535484 787.02057266 816.79535484 787.02057266 820.79535484 787.02057266 C820.79535484 803.19057266 820.79535484 819.36057266 820.79535484 836.02057266 C803.54634321 840.6203091 803.54634321 840.6203091 797.07172203 842.21881485 C796.32332558 842.4047168 795.57492912 842.59061874 794.80385399 842.78215408 C792.40033864 843.37871322 789.99633216 843.97325875 787.59222984 844.56744766 C785.8944916 844.98769648 784.19675813 845.4079646 782.49902916 845.82825089 C778.97647513 846.6998621 775.45362865 847.57028012 771.93060875 848.44000626 C767.41397399 849.55527669 762.89847961 850.67509561 758.38322639 851.79594421 C754.89404364 852.66129246 751.40409545 853.52352056 747.91392326 854.38486862 C746.24704642 854.79679198 744.5804532 855.20986479 742.91415215 855.62411118 C740.59898381 856.19933421 738.28277673 856.77017126 735.96625328 857.3399086 C735.28059792 857.51128845 734.59494255 857.6826683 733.88850975 857.85924149 C731.10282413 858.54021356 728.67694571 859.02057266 725.79535484 859.02057266 C725.77359088 859.62693212 725.75182691 860.23329157 725.72940344 860.85802555 C725.21331468 874.91578369 724.4631297 888.93271077 723.4013809 902.95949674 C723.06505024 907.4078906 722.73846589 911.85699064 722.41093117 916.30603945 C722.23141047 918.74366668 722.05147443 921.18126335 721.8711471 923.61883104 C719.79169535 951.74727145 717.82170317 979.88386104 715.85785484 1008.02057266 C715.801383 1008.82937437 715.74491117 1009.63817608 715.68672806 1010.47148693 C709.47196743 1099.52171179 704.08801158 1188.61127653 689.59334715 1482.32853234 C689.44565635 1485.42563072 689.29789203 1488.52272559 689.15012904 1491.61982052 C685.31126657 1572.08422192 681.5250539 1652.5510342 677.79535484 1733.02057266 C685.06707343 1732.90821037 692.33874314 1732.79307401 699.61036742 1732.67475688 C702.98989382 1732.61984786 706.36942874 1732.56603072 709.74899864 1732.51382828 C734.45610376 1732.13120503 759.12145534 1731.36054504 783.79535484 1730.02057266 C785.17225487 1729.94579697 785.17225487 1729.94579697 786.57697105 1729.86951065 C822.20459718 1727.90688575 857.82897013 1724.88955528 893.22797203 1720.3723793 C896.73537027 1720.0264882 900.2709424 1720.02057266 903.79535484 1720.02057266 C903.79535484 1739.49057266 903.79535484 1758.96057266 903.79535484 1779.02057266 C897.47250328 1779.0811586 891.14965172 1779.14174454 884.63519859 1779.20416641 C858.02176329 1779.46163387 831.40850505 1779.73519277 804.79535484 1780.02057266 C803.40184555 1780.03543716 803.40184555 1780.03543716 801.98018456 1780.05060196 C678.72453317 1781.01696919 678.72453317 1781.01696919 508.37128258 1803.29376602 C507.27888268 1803.52329971 506.18648277 1803.7528334 505.06097984 1803.98932266 C504.13059898 1804.18977188 503.20021812 1804.3902211 502.24164391 1804.59674454 C499.79535484 1805.02057266 499.79535484 1805.02057266 495.79535484 1805.02057266 C495.79535484 1785.55057266 495.79535484 1766.08057266 495.79535484 1746.02057266 C503.51649691 1745.42663866 511.14581635 1744.8591771 518.87055016 1744.63165665 C520.24693657 1744.58754654 520.24693657 1744.58754654 521.65112877 1744.54254532 C524.64182636 1744.44755313 527.63263547 1744.35690975 530.62347984 1744.26666641 C532.74219788 1744.20098496 534.86091117 1744.13515042 536.97961998 1744.06917191 C541.41065251 1743.93191052 545.84174623 1743.79688544 550.27289391 1743.66339493 C555.87634461 1743.49435837 561.47958389 1743.31919976 567.08278847 1743.14221478 C571.46037139 1743.00475822 575.83806145 1742.87098026 580.21578789 1742.73818016 C582.27731229 1742.67517039 584.33880243 1742.61102659 586.40025139 1742.54559517 C601.53561362 1742.06776256 616.65273976 1741.94296963 631.79535484 1742.02057266 C630.4925086 1622.00755479 630.4925086 1622.00755479 627.79535484 1502.02057266 C627.75742695 1500.72427555 627.75742695 1500.72427555 627.71873283 1499.40179062 C624.84194446 1401.27806623 620.37355322 1303.21622624 586.47064781 891.54205704 C586.3549897 890.52251434 586.23933159 889.50297165 586.12016869 888.45253372 C585.91100154 886.61424554 585.69816242 884.77636869 585.4804287 882.93907547 C584.91084368 877.92941825 584.7031204 873.06308383 584.79535484 868.02057266 C577.26604721 867.75632494 569.73663186 867.49534627 562.20707607 867.23826981 C558.70885903 867.11873554 555.21068433 866.99817522 551.71259117 866.87506485 C529.75957135 866.0924974 529.75957135 866.0924974 507.79535484 866.02057266 C508.50603111 866.8330043 509.21670738 867.64543594 509.9489193 868.48248672 C522.73324628 883.17972052 533.53121879 898.88974667 542.79535484 916.02057266 C543.16499352 916.70329239 543.53463219 917.38601212 543.91547203 918.08942032 C557.76228563 943.98998087 566.07078945 972.10978145 570.79535484 1001.02057266 C570.96051598 1002.02813614 571.12567711 1003.03569962 571.29584312 1004.07379532 C583.24892661 1081.54015953 567.2697694 1167.28690899 464.79535484 1369.02057266 C461.93751832 1372.86401687 459.01027283 1376.65053786 456.0517025 1380.41705704 C454.74378557 1382.08639213 453.4467311 1383.76377668 452.15082359 1385.44244766 C446.98753067 1392.10524033 441.66786127 1398.59630432 436.1466732 1404.96588516 C433.01972958 1408.57511403 429.97708409 1412.23689132 426.98285484 1415.95807266 C423.99044605 1419.64601431 420.88938675 1423.0484543 417.47504234 1426.34479141 C415.65157591 1428.16401722 413.97517206 1430.06825177 412.29535484 1432.02057266 C409.53924102 1435.21963335 406.64342563 1438.19897725 403.62958336 1441.1536293 C401.89900249 1442.91507638 400.29641938 1444.72949549 398.69769859 1446.61041641 C394.30710297 1451.65826597 389.59735124 1456.36490934 384.85785484 1461.08307266 C384.00256187 1461.94223282 383.14726891 1462.80139297 382.26605797 1463.68658829 C377.79873224 1468.14709887 373.26135031 1472.44771681 368.47284508 1476.56134415 C366.48270651 1478.29254168 364.62712707 1480.12338 362.79535484 1482.02057266 C359.62419454 1485.23491997 356.33952732 1488.23808229 352.91644859 1491.18072891 C350.57044426 1493.21566085 348.27799034 1495.30348233 345.98285484 1497.39557266 C341.71225333 1501.25079652 337.30761815 1504.89639782 332.83441734 1508.51276016 C329.32477406 1511.40889254 325.90519658 1514.3974085 322.48285484 1517.39557266 C315.99239948 1523.06341011 309.31714296 1528.43412072 302.49847984 1533.69977188 C300.83978747 1534.98611444 299.19084413 1536.28380307 297.54535484 1537.58697891 C282.26962011 1549.68443392 266.80359399 1561.50160349 250.79877281 1572.62018204 C248.8616034 1573.97426487 246.93778482 1575.34509164 245.01801109 1576.72369766 C224.79967248 1591.21290969 203.97616094 1604.98163658 182.79535484 1618.02057266 C181.76797203 1618.65527481 180.74058922 1619.28997696 179.68207359 1619.94391251 C163.2801177 1630.05797902 146.70149713 1639.76594061 129.79535484 1649.02057266 C128.79020836 1649.57196915 127.78506187 1650.12336563 126.74945641 1650.6914711 C72.65418882 1680.31962119 16.84653321 1705.69152821 -41.28045082 1726.3355751 C-43.2328183 1727.03060207 -45.18322472 1727.73091944 -47.13335609 1728.43219376 C-136.19599282 1760.3857673 -229.77385005 1779.49620739 -390.20464516 1793.02057266 C-390.89936928 1793.04979813 -391.5940934 1793.07902359 -392.30986977 1793.10913467 C-458.84191672 1795.8622517 -525.00048892 1792.77023718 -591.20464516 1786.02057266 C-588.02174759 1789.94147335 -584.83785934 1793.86155116 -581.64995766 1797.77838516 C-579.67728165 1800.20373614 -577.71311317 1802.63459505 -575.75933266 1805.07526016 C-571.90488882 1809.86842464 -567.9191074 1814.50845594 -563.74370766 1819.02447891 C-563.22438164 1819.58620804 -562.70505562 1820.14793716 -562.16999245 1820.72668839 C-556.82832892 1826.47229796 -551.34259192 1832.06874962 -545.79522133 1837.61529922 C-544.13386808 1839.27886075 -542.48073826 1840.9503237 -540.82769203 1842.62213516 C-534.26338957 1849.22040956 -527.51091156 1855.24188983 -520.20464516 1861.02057266 C-518.36855374 1862.57983071 -516.53459552 1864.14161199 -514.70464516 1865.70807266 C-501.30327789 1876.87298925 -487.00409965 1886.81103927 -472.20464516 1896.02057266 C-471.61892738 1896.38924454 -471.03320961 1896.75791641 -470.42974281 1897.13776016 C-441.13858157 1915.5191588 -409.82532254 1929.68912801 -377.20464516 1941.02057266 C-376.18225746 1941.37603165 -375.15986977 1941.73149063 -374.10650063 1942.0977211 C-316.61462274 1961.82668838 -254.48000686 1971.0593425 -193.78277016 1971.22369766 C-192.16264763 1971.23072443 -190.54252536 1971.2378112 -188.92240334 1971.24495316 C-183.76647989 1971.26436066 -178.61060144 1971.26938846 -173.45464516 1971.27057266 C-172.57454906 1971.27101452 -171.69445297 1971.27145638 -170.7876873 1971.27191162 C-142.49776873 1971.27935421 -114.37736134 1970.83898452 -86.20464516 1968.02057266 C-84.8795594 1967.88975296 -84.8795594 1967.88975296 -83.52770424 1967.75629044 C-23.76253608 1961.80236485 36.88112876 1950.54316519 91.88397789 1925.68732071 C99.04982159 1922.50884164 106.10828954 1920.52890477 113.79535484 1919.02057266 C114.69117271 1918.84429337 115.58699059 1918.66801407 116.50995445 1918.48639297 C120.63776232 1917.73744859 122.35690778 1917.80533501 126.23285484 1919.70807266 C130.02260602 1923.12809202 130.59922953 1924.71307058 131.35785484 1929.77057266 C131.19515502 1934.38610967 129.2399894 1936.87670299 126.05707359 1940.09088516 C78.5262816 1980.64392704 -25.76135157 1985.16806085 -85.82964516 1991.77057266 C-87.19627296 1991.92228424 -87.19627296 1991.92228424 -88.59050941 1992.0770607 C-95.12257424 1992.79449831 -101.65947512 1993.4349372 -108.20464516 1994.02057266 C-109.25030647 1994.11486557 -110.29596779 1994.20915848 -111.37331581 1994.30630875 C-132.21756206 1996.12087181 -152.98591663 1996.38360016 -173.89312935 1996.33863068 C-176.55554197 1996.33299133 -179.21794823 1996.33017026 -181.88036537 1996.32754898 C-206.34148836 1996.29253016 -230.70946288 1996.12659936 -255.03460121 1993.27380753 C-257.32113191 1993.00697916 -259.60887877 1992.75310448 -261.89702797 1992.50055313 C-347.62384363 1982.91944836 -431.9177255 1956.9577258 -544.20464516 1881.02057266 C-544.77022133 1880.57423477 -545.3357975 1880.12789688 -545.91851234 1879.6680336 C-549.06346065 1877.17546205 -552.14693627 1874.61917949 -555.20464516 1872.02057266 C-555.79471352 1871.51928848 -556.38478188 1871.0180043 -556.99273109 1870.50152969 C-558.98460662 1868.80480214 -560.97075147 1867.10162434 -562.95464516 1865.39557266 C-563.56936684 1864.86874893 -564.18408852 1864.3419252 -564.81743813 1863.79913712 C-568.56012667 1860.5559788 -572.11012662 1857.18449206 -575.56817055 1853.63898087 C-577.27728071 1851.94873899 -579.05903852 1850.38716764 -580.89214516 1848.83307266 C-588.58388957 1842.18884208 -595.78720469 1834.87291145 -602.37261391 1827.13385391 C-604.25347868 1824.96424231 -606.19364006 1822.85608758 -608.14727211 1820.75201797 C-613.75891912 1814.70326125 -619.03600221 1808.45467032 -624.20464516 1802.02057266 C-625.28299594 1800.69807974 -626.36250115 1799.37652761 -627.44292641 1798.05572891 C-628.59268529 1796.64819259 -629.74242493 1795.24064055 -630.89214516 1793.83307266 C-631.42694496 1793.17984024 -631.96174477 1792.52660782 -632.51275063 1791.85358047 C-635.25265364 1788.48908466 -637.95384883 1785.09676013 -640.59917641 1781.65729141 C-641.34904823 1780.68408951 -641.34904823 1780.68408951 -642.11406898 1779.69122696 C-643.20464516 1778.02057266 -643.20464516 1778.02057266 -643.20464516 1776.02057266 C-644.4185392 1775.78983047 -645.63243324 1775.55908829 -646.88311195 1775.32135391 C-659.04928949 1772.97138723 -671.04007127 1770.19028807 -683.01714516 1767.02057266 C-683.90840096 1766.78613449 -684.79965675 1766.55169632 -685.7179203 1766.31015396 C-780.6422938 1741.2707875 -876.08210735 1703.30339522 -963.46050453 1633.46051407 C-965.91631253 1631.43302869 -968.40787384 1629.4505157 -970.89214516 1627.45807266 C-975.57591484 1623.62782125 -980.02819736 1619.58151203 -984.43975258 1615.44415665 C-987.22341829 1612.83410834 -990.04265829 1610.29057381 -992.93902016 1607.80572891 C-998.11358465 1603.29998568 -1002.92783847 1598.44310443 -1007.76714516 1593.58307266 C-1008.67400063 1592.68008438 -1009.58085609 1591.7770961 -1010.51519203 1590.84674454 C-1015.6219396 1585.73259051 -1020.51419531 1580.51706506 -1025.20464516 1575.02057266 C-1026.1299614 1573.97213543 -1027.05696365 1572.92518306 -1027.98589516 1571.87994766 C-1051.40919758 1545.22835146 -1071.03969409 1515.08318158 -1086.20464516 1483.02057266 C-1086.56123207 1482.27549454 -1086.91781898 1481.53041641 -1087.28521156 1480.76276016 C-1107.50860284 1438.26471035 -1119.22007182 1390.42167449 -1119.40777016 1343.28619766 C-1119.41482979 1342.10230453 -1119.42188942 1340.91841141 -1119.42916298 1339.69864273 C-1119.65876699 1289.84847193 -1119.65876699 1289.84847193 -1116.20464516 1266.02057266 C-1116.10518593 1265.32520401 -1116.0057267 1264.62983536 -1115.90325356 1263.91339493 C-1105.40688399 1190.90396501 -1080.44124477 1122.05086958 -1042.20464516 1059.02057266 C-1041.67161781 1058.13111954 -1041.13859047 1057.24166641 -1040.58941078 1056.32526016 C-1018.63309857 1019.70439994 -992.24663415 985.08432831 -963.47027016 953.53229141 C-961.56309641 951.41795914 -959.68463074 949.28429094 -957.81402016 947.13776016 C-946.82888017 934.56850576 -935.05548062 922.76716224 -923.26714516 910.95807266 C-922.24512001 909.93216522 -922.24512001 909.93216522 -921.20244789 908.88553238 C-907.9603381 895.60382679 -907.9603381 895.60382679 -901.84942055 890.42023087 C-899.11037792 888.08938162 -896.51459495 885.60569807 -893.89214516 883.14557266 C-889.01878966 878.60708743 -884.00160538 874.32708469 -878.80620766 870.15729141 C-876.25477787 868.06174773 -873.82137742 865.88094112 -871.39214516 863.64557266 C-866.42746957 859.12724804 -861.20377119 855.0149533 -855.90386391 850.90338516 C-852.80428336 848.49815657 -849.74288913 846.04922669 -846.690485 843.58453751 C-838.34803723 836.85322633 -829.83323283 830.37986817 -821.20464516 824.02057266 C-820.52095863 823.5144545 -819.83727211 823.00833633 -819.13286781 822.48688126 C-807.05230344 813.56364119 -794.63900186 805.17743452 -782.09429359 796.92242813 C-779.46345747 795.19091297 -776.83763898 793.45204771 -774.21245766 791.71197891 C-752.77382317 777.57015639 -730.6943077 764.41601969 -708.20464516 752.02057266 C-707.26266273 751.50075821 -706.32068031 750.98094376 -705.35015297 750.44537735 C-680.86561328 736.97349839 -656.14651209 724.13630771 -630.68755531 712.60016251 C-627.24433408 711.03857261 -623.80829214 709.46195744 -620.37261391 707.88385391 C-531.26054574 667.18927994 -437.19159457 637.44344843 -75.20464516 568.02057266 C-85.77324942 562.70181156 -85.77324942 562.70181156 -96.40386391 557.50885391 C-133.81380217 539.46945539 -169.85842441 513.07974715 -194.20464516 479.02057266 C-194.61053871 478.46434219 -195.01643227 477.90811172 -195.43462563 477.33502579 C-213.33136355 452.62351577 -224.82005013 423.9673294 -230.20464516 394.02057266 C-230.3669059 393.15367813 -230.52916664 392.2867836 -230.69634438 391.39361954 C-243.73871769 318.65782448 -221.81990144 241.47834389 -180.20464516 181.64557266 C-171.97461024 170.00484113 -163.06290915 158.91132063 -153.39995766 148.42682266 C-152.16902849 147.07761916 -150.94683033 145.71985397 -149.75811195 144.3333168 C-144.69680507 138.43330034 -139.27380665 132.94125159 -133.76714516 127.45807266 C-132.86415688 126.55121719 -131.96116859 125.64436172 -131.03081703 124.71002579 C-125.91689085 119.60350573 -120.70475598 114.70662252 -115.20464516 110.02057266 C-114.12143892 109.07139106 -113.0393577 108.12092362 -111.95855141 107.16901016 C-103.72039491 99.98321503 -95.19679343 93.25012407 -86.44634438 86.70026016 C-84.19434285 85.01285322 -81.95155179 83.31366825 -79.70855141 81.61432266 C-67.58368528 72.49133767 -55.01593019 64.14490913 -42.20464516 56.02057266 C-40.85402992 55.16350723 -40.85402992 55.16350723 -39.47612953 54.28912735 C-28.70510838 47.48117818 -17.79217044 40.96807079 -6.690485 34.71319962 C-5.8546891 34.24228897 -5.0188932 33.77137833 -4.15777016 33.28619766 C-3.41688148 32.8714418 -2.67599281 32.45668594 -1.91265297 32.02936172 C-0.23547516 31.13448475 -0.23547516 31.13448475 0.79535484 30.02057266 C-84.73866539 9.41195782 -170.84040486 -9.10641057 -472.25530434 -48.78802109 C-475.00863013 -48.96670636 -477.76142909 -49.15202326 -480.51421547 -49.33880234 C-535.71961993 -53.0122882 -592.00786732 -52.41932263 -647.20464516 -48.97942734 C-648.26097145 -48.91390671 -649.31729774 -48.84838608 -650.40563393 -48.78087997 C-749.80575315 -42.53851955 -848.82302984 -28.06471059 -1011.15813637 20.31604385 C-1013.15829272 21.00461542 -1015.16015292 21.68797173 -1017.16265297 22.36969376 C-1060.25098922 37.06070196 -1102.08986369 55.26849355 -1142.90288734 75.39313126 C-1146.10593949 76.97192049 -1149.31504017 78.53783193 -1152.52495766 80.10260391 C-1164.48310806 85.96801938 -1176.13936539 92.24034677 -1187.68902016 98.87213516 C-1192.01189532 101.35333881 -1196.36941246 103.75895531 -1200.75322914 106.13043594 C-1229.29527808 121.58822522 -1256.56237238 139.51534871 -1283.20464516 158.02057266 C-1283.96180824 158.54602676 -1284.71897133 159.07148087 -1285.49907875 159.61285782 C-1301.17707151 170.5212669 -1316.59113657 181.79243743 -1331.53081703 193.69391251 C-1333.25301843 195.05891285 -1334.98499339 196.41052282 -1336.72027016 197.75885391 C-1344.14343853 203.53231581 -1351.39842439 209.46573496 -1358.53521156 215.58942032 C-1360.2796515 217.08487321 -1362.02888772 218.57457221 -1363.77886391 220.06354141 C-1369.88289866 225.26498279 -1375.93454476 230.51211721 -1381.87261391 235.90338516 C-1383.38945202 237.28048107 -1384.91258984 238.6506805 -1386.44292641 240.01276016 C-1409.90828257 260.86869726 -1409.90828257 260.86869726 -1431.27886391 283.81354141 C-1433.52750649 286.39058616 -1435.8673983 288.86964759 -1438.21465492 291.3567543 C-1443.6887196 297.15758603 -1448.97772994 303.00769366 -1453.95464516 309.24713516 C-1455.57054931 311.23896146 -1457.20121706 313.18099557 -1458.89214516 315.10651016 C-1466.92359358 324.25468135 -1474.24016775 333.8519813 -1481.45757484 343.65192032 C-1483.02347361 345.77494294 -1484.59968527 347.88964973 -1486.18120766 350.00104141 C-1541.14472467 423.66599991 -1576.91115955 510.06125449 -1597.20464516 675.02057266 C-1597.22655922 675.94966446 -1597.24847328 676.87875626 -1597.27105141 677.83600235 C-1598.2345563 724.42146411 -1592.19316202 770.82313166 -1577.20464516 815.02057266 C-1576.86594398 816.0200795 -1576.52724281 817.01958633 -1576.17827797 818.04938126 C-1550.28719954 893.15317903 -1495.48463937 963.29362957 -1423.32964516 998.58307266 C-1377.44584849 1020.21311783 -1313.16613196 1029.76833308 -1264.26323891 1013.01276016 C-1262.1468281 1012.1271451 -1260.19313276 1011.15943374 -1258.20464516 1010.02057266 C-1257.11152016 1009.44307266 -1256.01839516 1008.86557266 -1254.89214516 1008.27057266 C-1251.39065996 1005.33909669 -1249.55557623 1002.37543743 -1248.20464516 998.02057266 C-1248.01211509 994.74757765 -1248.01211509 994.74757765 -1249.20464516 992.02057266 C-1253.17799269 988.17967005 -1256.94452143 987.90589624 -1262.27886391 987.99322891 C-1264.10478065 988.01413589 -1264.10478065 988.01413589 -1265.96758461 988.03546524 C-1267.26268959 988.05117569 -1268.55779457 988.06688614 -1269.89214516 988.08307266 C-1293.93902045 988.19323793 -1317.64937105 985.83681148 -1335.91948891 968.49322891 C-1349.79435187 953.47991566 -1353.60844328 933.03367704 -1353.35308266 913.24322891 C-1352.23956235 889.06811698 -1343.15171438 870.51637091 -1327.20464516 853.02057266 C-1326.34806313 852.04024063 -1326.34806313 852.04024063 -1325.47417641 851.04010391 C-1307.83649401 831.95150677 -1280.65656153 820.20206221 -1255.20464516 817.02057266 C-1254.38995766 816.91100235 -1253.57527016 816.80143204 -1252.73589516 816.68854141 C-1223.02624938 813.33278323 -1191.75464604 817.30433506 -1167.59136391 835.97760391 C-1152.18203131 849.1675891 -1144.56920193 868.22428337 -1142.20464516 888.02057266 C-1142.09378578 888.88682266 -1141.98292641 889.75307266 -1141.86870766 890.64557266 C-1138.12535534 924.63925853 -1146.82999164 957.2465726 -1168.20464516 984.02057266 C-1171.70879454 988.17408814 -1175.41677296 992.12462993 -1179.20464516 996.02057266 C-1179.7374308 996.57599747 -1180.27021645 997.13142227 -1180.81914711 997.70367813 C-1216.11054124 1033.90687871 -1268.93664701 1050.59301225 -1318.44675636 1051.23225784 C-1333.43996889 1051.37138988 -1348.33735037 1051.13781523 -1363.20464516 1049.02057266 C-1364.09554848 1048.8969838 -1364.9864518 1048.77339493 -1365.90435219 1048.64606094 C-1418.84487341 1041.04098868 -1467.25855265 1017.27994763 -1507.20464516 982.02057266 C-1508.11859047 981.21748672 -1509.03253578 980.41440079 -1509.97417641 979.58697891 C-1514.88586831 975.22021235 -1519.60720987 970.7149094 -1524.20464516 966.02057266 C-1526.7860664 963.42622277 -1529.38086314 960.84878474 -1532.00152016 958.29401016 C-1538.56406 951.87612667 -1544.49436434 945.21887454 -1550.20464516 938.02057266 C-1551.20987741 936.8022932 -1552.21786538 935.58628415 -1553.22808266 934.37213516 C-1612.39784731 863.03213475 -1643.5980566 774.00617623 -1653.39214516 634.20807266 C-1653.39154091 633.13275284 -1653.39093666 632.05743301 -1653.3903141 630.94952774 C-1653.36389031 613.55751751 -1652.94651047 596.33745925 -1651.20464516 579.02057266 C-1651.07573891 577.72941544 -1650.94683266 576.43825821 -1650.81402016 575.10797501 C-1643.15493376 500.24942265 -1620.53538152 428.86173623 -1517.20464516 256.02057266 C-1516.312451 254.869738 -1515.42053152 253.71869034 -1514.52886391 252.56744766 C-1508.73860391 245.11592103 -1502.77216651 237.84231733 -1496.62700844 230.68121719 C-1495.15647516 228.96433299 -1493.69367592 227.24108584 -1492.23198891 225.51666641 C-1486.55004201 218.82835013 -1480.75784997 212.26769569 -1474.79448891 205.82916641 C-1472.3598061 203.1888392 -1469.96591458 200.5171088 -1467.57964516 197.83307266 C-1463.95567622 193.78846447 -1460.16385536 189.95808135 -1456.29839516 186.14557266 C-1454.46581021 184.2856357 -1452.76355935 182.38877722 -1451.07964516 180.39557266 C-1443.48750888 171.55882388 -1434.99261318 163.19957388 -1426.09136391 155.68854141 C-1423.68963418 153.5652731 -1421.45759953 151.30079426 -1419.20464516 149.02057266 C-1415.67151116 145.44973754 -1412.07091421 142.05506041 -1408.25542641 138.79010391 C-1405.92897933 136.78271244 -1403.6627183 134.71590628 -1401.39214516 132.64557266 C-1397.14888508 128.82020941 -1392.79605018 125.16963177 -1388.35308266 121.57916641 C-1386.02653062 119.69794858 -1383.72497706 117.78927515 -1381.43120766 115.86822891 C-1371.52576244 107.59258392 -1361.36741994 99.71999373 -1350.97637367 92.06354141 C-1348.93096325 90.55592278 -1346.89053418 89.04244541 -1344.85283852 87.52447891 C-1335.42804024 80.52778417 -1325.79262984 73.891473 -1316.01714516 67.39557266 C-1315.23773567 66.87688614 -1314.45832619 66.35819962 -1313.65529823 65.82379532 C-1289.8470489 50.00305015 -1265.36345768 35.57775041 -1240.20464516 22.02057266 C-1239.26072914 21.50800919 -1238.31681313 20.99544571 -1237.34429359 20.46735001 C-1222.28183324 12.30272976 -1206.8066396 5.08929448 -1191.20464516 -1.97942734 C-1190.16324379 -2.45380234 -1189.12184242 -2.92817734 -1188.04888344 -3.41692734 C-1134.09022022 -27.92065184 -1077.58211422 -46.38511361 -1020.20464516 -60.97942734 C-1019.03599922 -61.27786545 -1019.03599922 -61.27786545 -1017.84374428 -61.58233261 C-923.47200196 -85.63057594 -825.65332342 -96.44178806 0 0 Z M344.79535484 -24.97942734 C343.74360069 -24.72059769 343.74360069 -24.72059769 342.67059898 -24.45653915 C282.72293834 -9.62586715 225.88107626 13.34104542 170.79535484 41.02057266 C173.58589868 42.88093522 175.63151814 43.7352106 178.78680992 44.73785782 C179.81565804 45.06707733 180.84450615 45.39629684 181.90453148 45.73549271 C183.0299485 46.08995972 184.15536552 46.44442673 185.31488609 46.80963516 C186.49520912 47.18500916 187.67553215 47.56038315 188.89162254 47.94713211 C192.12047408 48.97176601 195.35076109 49.99156213 198.58216667 51.00809479 C200.61400327 51.64750755 202.64537104 52.28839088 204.67664146 52.92959976 C232.28091181 61.6386237 259.98384936 69.99639187 287.79535484 78.02057266 C288.81836693 78.31580826 289.84137901 78.61104385 290.89539146 78.91522598 C391.85360645 108.00026407 494.20717966 132.44894352 814.36205101 167.38893509 C816.37486825 167.39542598 818.38766568 167.40733851 820.40045738 167.41937637 C859.69494892 167.60338213 908.91504307 166.14063311 939.79535484 138.02057266 C940.41539391 137.5036586 941.03543297 136.98674454 941.67426109 136.45416641 C952.57109603 126.7274614 958.09067225 111.63924172 958.95551109 97.37994766 C959.52791208 78.36627995 951.54907584 62.99605992 938.99066734 49.30182266 C911.88909602 20.92390823 871.95511318 4.87735 835.79535484 -7.97942734 C835.16518456 -8.20523483 834.53501427 -8.43104233 833.88574791 -8.66369247 C750.53488135 -38.52004563 661.98311485 -49.29963409 344.79535484 -24.97942734 Z M177.79535484 800.02057266 C176.98378929 800.1077858 176.17222374 800.19499893 175.33606529 800.28485489 C99.54748864 808.54487692 25.40612349 827.43396248 -94.20464516 878.02057266 C-95.3883268 878.57889786 -96.57200844 879.13722305 -97.79155922 879.71246719 C-112.91366318 886.85168639 -127.82778919 894.27087838 -142.41655922 902.45807266 C-145.41020811 904.13577432 -148.41237321 905.79755081 -151.41558266 907.45807266 C-164.50804679 914.71656834 -177.45333462 922.17775015 -190.20464516 930.02057266 C-190.92088051 930.45949844 -191.63711586 930.89842422 -192.37505531 931.35065079 C-214.48186464 944.95016402 -236.23422571 959.42408835 -257.27251625 974.62555313 C-259.42851428 976.18220877 -261.59182877 977.72840527 -263.75542641 979.27447891 C-272.70992867 985.68861771 -281.51399047 992.25380337 -290.20464516 999.02057266 C-291.80711527 1000.25324198 -293.41190314 1001.48284751 -295.01690102 1002.71222305 C-311.23136881 1015.14161004 -327.11550044 1027.94213225 -342.67144203 1041.18854141 C-345.99744845 1044.01669278 -349.36804916 1046.78093038 -352.76714516 1049.52057266 C-357.83784066 1053.64513256 -362.63656995 1058.01673865 -367.42730141 1062.45807266 C-370.31695189 1065.12419181 -373.2597352 1067.7165562 -376.22808266 1070.29401016 C-384.35034898 1077.38895426 -392.27932461 1084.70737485 -400.20464516 1092.02057266 C-401.0339756 1092.78455368 -401.0339756 1092.78455368 -401.8800602 1093.56396866 C-413.03087503 1103.8577954 -423.82672853 1114.48709689 -434.54424477 1125.22980118 C-437.29122361 1127.98219861 -440.04358719 1130.72913163 -442.79644203 1133.47565079 C-444.56954964 1135.24941836 -446.34234746 1137.02349566 -448.11480141 1138.79791641 C-448.92530449 1139.60639526 -449.73580757 1140.41487411 -450.57087135 1141.24785233 C-454.78640534 1145.48067317 -458.84012343 1149.79285735 -462.73789406 1154.32024002 C-464.39130925 1156.23696319 -466.10288074 1158.08654656 -467.85308266 1159.91510391 C-468.46127846 1160.55488174 -469.06947426 1161.19465958 -469.69610023 1161.85382462 C-470.31767006 1162.50697647 -470.93923988 1163.16012833 -471.57964516 1163.83307266 C-476.66528135 1169.21305836 -481.49543052 1174.66561054 -486.10698891 1180.45807266 C-488.33682377 1183.18204225 -490.68418634 1185.75392452 -493.07964516 1188.33307266 C-497.34618515 1192.96946752 -501.25584357 1197.79287089 -505.10747719 1202.77130508 C-507.9739696 1206.47264459 -510.91781933 1210.08082182 -513.95464516 1213.64557266 C-521.08529662 1222.14359153 -527.61719296 1231.09970006 -534.20464516 1240.02057266 C-534.73928383 1240.73922501 -535.2739225 1241.45787735 -535.82476234 1242.19830704 C-557.48110365 1271.34096185 -576.80786123 1302.17454552 -594.20464516 1334.02057266 C-594.91934975 1335.31801407 -594.91934975 1335.31801407 -595.64849281 1336.64166641 C-639.77216898 1417.04551532 -667.05820563 1513.14159351 -651.20513344 1665.60211563 C-643.06044874 1693.43078209 -631.18607228 1719.65914774 -617.20464516 1745.02057266 C-616.769506 1745.91663223 -616.33436684 1746.8126918 -615.88604164 1747.73590469 C-613.67130748 1750.74526759 -612.18603233 1750.96209141 -608.55230141 1751.65338516 C-607.38457191 1751.88316055 -606.21684242 1752.11293594 -605.01372719 1752.34967422 C-603.75673012 1752.57107071 -602.49973305 1752.79246719 -601.20464516 1753.02057266 C-599.9437809 1753.25485977 -598.68291664 1753.48914688 -597.38384438 1753.7305336 C-593.14486208 1754.50387076 -588.89567742 1755.20732751 -584.64214516 1755.89557266 C-583.85984535 1756.02274673 -583.07754555 1756.14992081 -582.27153969 1756.28094864 C-568.78896578 1758.4540112 -555.27156599 1760.21628345 -541.70464516 1761.77057266 C-540.84047981 1761.87126053 -539.97631447 1761.97194839 -539.0859623 1762.07568741 C-511.63816531 1765.24494049 -484.33590824 1766.40193754 -456.73186684 1766.33863068 C-454.22596611 1766.3329798 -451.7200722 1766.3301652 -449.21416664 1766.32754898 C-422.45244394 1766.28699731 -395.85625903 1765.62335885 -369.20464516 1763.02057266 C-368.30062965 1762.93335953 -367.39661415 1762.84614639 -366.46520424 1762.75629044 C-287.96388531 1755.12162278 -211.11434733 1738.62135432 -136.20464516 1714.02057266 C-135.51451332 1713.79496658 -134.82438148 1713.5693605 -134.11333656 1713.33691788 C-99.78126835 1702.1090738 -66.15209008 1688.81290634 -33.20464516 1674.02057266 C-32.15083656 1673.54813126 -31.09702797 1673.07568985 -30.01128578 1672.58893204 C0.10431461 1659.03785949 29.92823132 1644.7011553 58.81000328 1628.6758461 C61.49783821 1627.18553527 64.18896658 1625.70134286 66.88136864 1624.21930313 C78.6209441 1617.75511486 90.34775811 1611.28579911 101.76556969 1604.26373672 C104.1818144 1602.78388129 106.60755788 1601.32018789 109.03363609 1599.85651016 C138.23612163 1582.21256403 166.82936199 1563.56807684 194.79535484 1544.02057266 C195.77955406 1543.33487198 195.77955406 1543.33487198 196.78363609 1542.63531876 C214.69653628 1530.14098654 232.16215301 1517.06575528 249.49506187 1503.78180313 C251.47624661 1502.26489943 253.46082558 1500.75266687 255.44769859 1499.24322891 C263.42237437 1493.16118323 271.21085172 1486.86603793 278.97064781 1480.51324844 C280.5775918 1479.19871064 282.18814675 1477.88858964 283.79926109 1476.57916641 C289.24231752 1472.15024568 294.61903998 1467.64985532 299.96234703 1463.10162735 C303.34424198 1460.22831814 306.77025959 1457.42175035 310.23285484 1454.64557266 C315.24710509 1450.56966165 319.97577771 1446.23204472 324.67401695 1441.80035782 C327.58781022 1439.05368985 330.53225211 1436.36079892 333.55853844 1433.73810196 C346.67099627 1422.28885297 358.99226598 1409.98453316 371.28046227 1397.66583633 C373.88258306 1395.05829292 376.49009237 1392.45622202 379.09808922 1389.85455704 C380.78005102 1388.17193531 382.46170306 1386.48900389 384.14301109 1384.80572891 C385.29314438 1383.65863197 385.29314438 1383.65863197 386.46651268 1382.48836136 C390.5679963 1378.3691343 394.51008535 1374.16712757 398.2974453 1369.75659561 C400.52279631 1367.17749434 402.84855288 1364.70069789 405.17035484 1362.20807266 C409.46410865 1357.56018725 413.53067325 1352.77640919 417.49847984 1347.84479141 C419.52068422 1345.35830541 421.58697363 1342.91771467 423.67743492 1340.48859024 C430.73828046 1332.26584936 437.2934606 1323.68852013 443.79535484 1315.02057266 C444.36157555 1314.27001602 444.92779625 1313.51945938 445.51117516 1312.7461586 C464.74093607 1287.21867813 481.97156648 1260.33895756 496.79535484 1232.02057266 C497.32660973 1231.0086586 497.85786461 1229.99674454 498.40521812 1228.95416641 C538.23347382 1152.58611807 563.42750678 1054.79744945 537.01019859 970.14166641 C526.51674478 938.076267 509.31850532 910.15663542 485.79535484 886.02057266 C484.90130943 885.09583145 484.90130943 885.09583145 483.9892025 884.1524086 C476.3204023 876.24426746 468.58211214 868.6962977 459.79535484 862.02057266 C459.13616051 861.51203751 458.47696617 861.00350235 457.79779625 860.47955704 C445.97585258 851.3869643 433.75300812 843.39457396 420.79535484 836.02057266 C420.15211266 835.64738907 419.50887047 835.27420547 418.84613609 834.88971329 C368.27661352 805.65592204 307.57720641 796.28287857 249.98285484 796.64557266 C248.66662132 796.64989304 247.3503878 796.65421341 245.99426842 796.6586647 C223.16457258 796.73754223 200.49988222 797.57912567 177.79535484 800.02057266 Z " fill="#FF0000" transform="translate(1857.2046451568604,650.9794273376465)"/>
<path d="M0 0 C0 16.17 0 32.34 0 49 C-17.24901163 53.59973644 -17.24901163 53.59973644 -23.72363281 55.19824219 C-24.84622749 55.47709511 -24.84622749 55.47709511 -25.99150085 55.76158142 C-28.3950162 56.35814056 -30.79902268 56.95268609 -33.203125 57.546875 C-34.90086324 57.96712382 -36.59859671 58.38739194 -38.29632568 58.80767822 C-41.81887971 59.67928943 -45.3417262 60.54970745 -48.86474609 61.41943359 C-53.38138085 62.53470403 -57.89687524 63.65452294 -62.41212845 64.77537155 C-65.9013112 65.6407198 -69.3912594 66.5029479 -72.88143158 67.36429596 C-74.54830842 67.77621932 -76.21490165 68.18929213 -77.8812027 68.60353851 C-80.19637104 69.17876155 -82.51257812 69.7495986 -84.82910156 70.31933594 C-85.85758461 70.57640572 -85.85758461 70.57640572 -86.90684509 70.83866882 C-89.69253071 71.5196409 -92.11840913 72 -95 72 C-95.02176396 72.60635945 -95.04352793 73.21271891 -95.06595141 73.83745289 C-95.58204016 87.89521102 -96.33222514 101.91213811 -97.39397395 115.93892407 C-97.7303046 120.38731794 -98.05688895 124.83641798 -98.38442367 129.28546679 C-98.56394437 131.72309402 -98.74388041 134.16069069 -98.92420775 136.59825838 C-101.00365949 164.72669879 -102.97365167 192.86328838 -104.9375 221 C-105.02220776 222.21320256 -105.02220776 222.21320256 -105.10862678 223.45091426 C-111.32338741 312.50113913 -116.70734326 401.59070387 -131.20200769 695.30795968 C-131.3496985 698.40505805 -131.49746281 701.50215292 -131.64522581 704.59924786 C-135.48408828 785.06364925 -139.27030095 865.53046154 -143 946 C-135.72828141 945.88763771 -128.4566117 945.77250135 -121.18498743 945.65418422 C-117.80546102 945.59927519 -114.4259261 945.54545806 -111.0463562 945.49325562 C-86.33925108 945.11063237 -61.6738995 944.33997238 -37 943 C-36.08206665 942.95014954 -35.1641333 942.90029907 -34.21838379 942.84893799 C1.40924234 940.88631308 37.03361529 937.86898262 72.43261719 933.35180664 C75.94001542 933.00591553 79.47558756 933 83 933 C83 952.47 83 971.94 83 992 C76.67714844 992.06058594 70.35429687 992.12117188 63.83984375 992.18359375 C37.22640845 992.44106121 10.6131502 992.71462011 -16 993 C-16.9290062 993.00990967 -17.85801239 993.01981934 -18.81517029 993.0300293 C-142.07082168 993.99639652 -142.07082168 993.99639652 -312.42407227 1016.27319336 C-314.06267212 1016.6174939 -314.06267212 1016.6174939 -315.734375 1016.96875 C-316.66475586 1017.16919922 -317.59513672 1017.36964844 -318.55371094 1017.57617188 C-321 1018 -321 1018 -325 1018 C-325 998.53 -325 979.06 -325 959 C-317.27885793 958.40606599 -309.64953849 957.83860443 -301.92480469 957.61108398 C-301.00721375 957.58167725 -300.0896228 957.55227051 -299.14422607 957.52197266 C-296.15352848 957.42698047 -293.16271937 957.33633708 -290.171875 957.24609375 C-288.05315696 957.18041229 -285.93444367 957.11457776 -283.81573486 957.04859924 C-279.38470233 956.91133786 -274.95360862 956.77631278 -270.52246094 956.64282227 C-264.91901023 956.47378571 -259.31577096 956.29862709 -253.71256638 956.12164211 C-249.33498345 955.98418556 -244.95729339 955.8504076 -240.57956696 955.7176075 C-238.51804255 955.65459773 -236.45655241 955.59045393 -234.39510345 955.52502251 C-219.25974122 955.0471899 -204.14261508 954.92239697 -189 955 C-190.30284624 834.98698213 -190.30284624 834.98698213 -193 715 C-193.02528526 714.13580193 -193.05057053 713.27160385 -193.07662201 712.38121796 C-195.95341038 614.25749357 -200.42180162 516.19565357 -234.32470703 104.52148438 C-234.44036514 103.50194168 -234.55602325 102.48239899 -234.67518616 101.43196106 C-234.8843533 99.59367287 -235.09719242 97.75579603 -235.31492615 95.91850281 C-235.40637405 95.11419327 -235.49782196 94.30988373 -235.59204102 93.48120117 C-235.71120628 92.46300545 -235.71120628 92.46300545 -235.83277893 91.42424011 C-236.0727485 87.94534918 -236.02390061 84.48695803 -236 81 C-236.88487075 80.9704603 -236.88487075 80.9704603 -237.78761768 80.94032383 C-252.13424634 80.46108111 -266.48070202 79.97690015 -280.82697773 79.48720646 C-287.76469919 79.2505148 -294.70246996 79.01550159 -301.64038086 78.78442383 C-308.33187571 78.56154863 -315.02319721 78.33401718 -321.71443748 78.10360527 C-324.27133114 78.01632875 -326.82827916 77.93063072 -329.3852787 77.84651375 C-332.95793565 77.72871892 -336.53036066 77.60538746 -340.1027832 77.48071289 C-341.16733231 77.44690521 -342.23188141 77.41309753 -343.32868958 77.37826538 C-344.30044128 77.3432341 -345.27219299 77.30820282 -346.27339172 77.27210999 C-347.11867589 77.2435344 -347.96396006 77.21495882 -348.83485889 77.18551731 C-351 77 -351 77 -354 76 C-354 63.13 -354 50.26 -354 37 C-342.58627126 36.9644155 -331.18416467 36.95375609 -319.7734375 37.21875 C-290.87395164 37.8840714 -261.97685389 38.16207054 -233.07012939 38.23217773 C-228.9857161 38.24240042 -224.90143397 38.2596644 -220.81707764 38.28344727 C-197.67634698 38.41218074 -174.9653804 38.11509298 -152 35 C-151.12541138 34.8840448 -150.25082275 34.7680896 -149.34973145 34.64862061 C-144.35951202 33.97308379 -139.39744105 33.1809325 -134.4375 32.3125 C-133.70573547 32.18716888 -132.97397095 32.06183777 -132.22003174 31.93270874 C-92.19571262 25.06015168 -52.66731164 15.2231111 -13.94824219 2.99658203 C-12.68915039 2.60196777 -11.43005859 2.20735352 -10.1328125 1.80078125 C-8.49143311 1.27738159 -8.49143311 1.27738159 -6.81689453 0.7434082 C-4 0 -4 0 0 0 Z " fill="#FF0000" transform="translate(3156,1438)"/>
<path d="M0 0 C0.73306366 0.00465271 1.46612732 0.00930542 2.22140503 0.01409912 C48.29173361 0.35394536 92.50298259 12.28826554 126.5625 44.375 C127.22636719 44.97441406 127.89023438 45.57382813 128.57421875 46.19140625 C147.9578513 64.39550741 161.7520428 92.6484362 167.5625 118.375 C167.5625 120.025 167.5625 121.675 167.5625 123.375 C163.2725 124.035 158.9825 124.695 154.5625 125.375 C153.94503906 124.48039062 153.32757812 123.58578125 152.69140625 122.6640625 C147.42030139 115.10800862 141.94932396 108.04397281 135.5625 101.375 C134.3559375 100.1065625 134.3559375 100.1065625 133.125 98.8125 C132.279375 98.008125 131.43375 97.20375 130.5625 96.375 C129.8921875 95.72144531 129.221875 95.06789063 128.53125 94.39453125 C108.86239902 75.84322862 82.29961884 65.15335108 55.5625 62.375 C54.59699219 62.26542969 53.63148438 62.15585938 52.63671875 62.04296875 C7.25210574 57.53456348 -41.44498692 70.72656159 -77.23046875 99.3359375 C-80.3737932 101.93539454 -83.40742142 104.64488616 -86.4375 107.375 C-87.85375786 108.56298753 -89.27037164 109.75055101 -90.6875 110.9375 C-107.89369447 126.23189509 -119.89745243 147.31918358 -122.4375 170.375 C-124.30795338 203.76332925 -115.24690606 233.1355581 -92.921875 258.19921875 C-69.63722754 282.63415568 -35.81317368 300.44974716 -1.89453125 302.33984375 C12.47803381 302.65394398 26.92306156 300.93838089 40.5625 296.375 C41.46871094 296.08882812 42.37492187 295.80265625 43.30859375 295.5078125 C57.39062278 290.54285375 67.81894143 279.97132974 74.25732422 266.75073242 C76.84616529 261.11222139 78.46543155 255.46592403 79.5625 249.375 C79.75779297 248.31152344 79.75779297 248.31152344 79.95703125 247.2265625 C83.58117303 222.00253572 78.94666468 194.49950431 65.0625 173.05859375 C56.86156583 162.64433928 43.43977571 157.00917204 30.5625 155.375 C15.03646195 154.26145219 1.71771941 156.8925172 -10.4375 167.375 C-15.62813264 172.53378826 -17.58377243 176.09975689 -17.75 183.5625 C-17.68498778 190.8601215 -16.27469664 195.45899234 -11.1875 200.6875 C-1.97051066 206.34337982 8.3126382 207.46872342 18.875 205.4375 C25.79558883 203.6376399 31.94460986 200.45538153 38.2265625 197.1171875 C41.5625 195.375 41.5625 195.375 44.5625 194.375 C44.01000034 200.16649644 42.86062482 205.22781645 40.875 210.6875 C40.47244995 211.79943726 40.47244995 211.79943726 40.06176758 212.93383789 C34.56634929 227.71090683 26.14154508 240.5232098 11.4296875 247.3671875 C2.12483662 251.08205192 -7.44428977 251.63272789 -16.95703125 248.4765625 C-30.75224184 242.35018551 -40.03778036 227.47627413 -45.86328125 214.1015625 C-46.80747222 211.54022991 -47.67939407 208.99678302 -48.4375 206.375 C-48.62828125 205.74980469 -48.8190625 205.12460938 -49.015625 204.48046875 C-51.82904771 190.43940539 -47.75971896 176.32014533 -40.4375 164.375 C-30.72623576 150.54700418 -18.14737918 141.32509643 -2.4375 135.375 C-0.72820313 134.72337891 -0.72820313 134.72337891 1.015625 134.05859375 C30.68785383 124.84221964 66.26610601 132.44747883 93.2277832 146.46582031 C95.01375467 147.42123081 96.78852138 148.39750158 98.5625 149.375 C99.49320313 149.87773438 100.42390625 150.38046875 101.3828125 150.8984375 C120.15686478 161.55079945 133.95359034 177.63336244 139.87109375 198.4375 C145.16184882 220.91573623 141.55192373 243.76608203 129.5625 263.375 C109.14736814 294.36804975 71.73196495 315.12023706 35.93359375 322.59375 C26.20990141 324.50199159 16.4828981 326.09434913 6.5625 326.375 C5.27730469 326.41496094 3.99210937 326.45492188 2.66796875 326.49609375 C-43.229009 327.44120526 -81.80847525 309.52411792 -115.1875 278.84765625 C-141.20897647 253.76132659 -155.84893362 218.46425426 -156.640625 182.453125 C-156.6667775 179.84320499 -156.68517691 177.23489309 -156.6875 174.625 C-156.68817474 173.94103149 -156.68884949 173.25706299 -156.68954468 172.55236816 C-156.67095049 160.62636722 -155.87736763 149.07003478 -153.4375 137.375 C-153.27121094 136.57739258 -153.10492187 135.77978516 -152.93359375 134.95800781 C-143.58560288 92.07842745 -115.94365672 53.51478341 -80.9921875 27.53271484 C-79.64993638 26.53319305 -78.32339428 25.51263932 -77 24.48828125 C-66.29255675 16.51346675 -53.87981816 10.2118867 -41.25 5.9375 C-40.27450195 5.60383423 -40.27450195 5.60383423 -39.27929688 5.26342773 C-26.35595945 1.18328269 -13.47289726 -0.15405098 0 0 Z " fill="#FF0000" transform="translate(2996.4375,1037.625)"/>
<path d="M0 0 C0.73306366 0.00465271 1.46612732 0.00930542 2.22140503 0.01409912 C48.29173361 0.35394536 92.50298259 12.28826554 126.5625 44.375 C127.22636719 44.97441406 127.89023438 45.57382813 128.57421875 46.19140625 C147.9578513 64.39550741 161.7520428 92.6484362 167.5625 118.375 C167.5625 120.025 167.5625 121.675 167.5625 123.375 C163.2725 124.035 158.9825 124.695 154.5625 125.375 C153.94503906 124.48039062 153.32757812 123.58578125 152.69140625 122.6640625 C147.42030139 115.10800862 141.94932396 108.04397281 135.5625 101.375 C134.3559375 100.1065625 134.3559375 100.1065625 133.125 98.8125 C132.279375 98.008125 131.43375 97.20375 130.5625 96.375 C129.8921875 95.72144531 129.221875 95.06789063 128.53125 94.39453125 C108.86239902 75.84322862 82.29961884 65.15335108 55.5625 62.375 C54.59699219 62.26542969 53.63148438 62.15585938 52.63671875 62.04296875 C7.25210574 57.53456348 -41.44498692 70.72656159 -77.23046875 99.3359375 C-80.3737932 101.93539454 -83.40742142 104.64488616 -86.4375 107.375 C-87.85375786 108.56298753 -89.27037164 109.75055101 -90.6875 110.9375 C-107.89369447 126.23189509 -119.89745243 147.31918358 -122.4375 170.375 C-124.30795338 203.76332925 -115.24690606 233.1355581 -92.921875 258.19921875 C-69.63722754 282.63415568 -35.81317368 300.44974716 -1.89453125 302.33984375 C12.47803381 302.65394398 26.92306156 300.93838089 40.5625 296.375 C41.46871094 296.08882812 42.37492187 295.80265625 43.30859375 295.5078125 C57.39062278 290.54285375 67.81894143 279.97132974 74.25732422 266.75073242 C76.84616529 261.11222139 78.46543155 255.46592403 79.5625 249.375 C79.75779297 248.31152344 79.75779297 248.31152344 79.95703125 247.2265625 C83.58117303 222.00253572 78.94666468 194.49950431 65.0625 173.05859375 C56.86156583 162.64433928 43.43977571 157.00917204 30.5625 155.375 C15.03646195 154.26145219 1.71771941 156.8925172 -10.4375 167.375 C-15.62813264 172.53378826 -17.58377243 176.09975689 -17.75 183.5625 C-17.68498778 190.8601215 -16.27469664 195.45899234 -11.1875 200.6875 C-1.97051066 206.34337982 8.3126382 207.46872342 18.875 205.4375 C25.79558883 203.6376399 31.94460986 200.45538153 38.2265625 197.1171875 C41.5625 195.375 41.5625 195.375 44.5625 194.375 C44.01000034 200.16649644 42.86062482 205.22781645 40.875 210.6875 C40.47244995 211.79943726 40.47244995 211.79943726 40.06176758 212.93383789 C34.56634929 227.71090683 26.14154508 240.5232098 11.4296875 247.3671875 C2.12483662 251.08205192 -7.44428977 251.63272789 -16.95703125 248.4765625 C-30.75224184 242.35018551 -40.03778036 227.47627413 -45.86328125 214.1015625 C-46.80747222 211.54022991 -47.67939407 208.99678302 -48.4375 206.375 C-48.62828125 205.74980469 -48.8190625 205.12460938 -49.015625 204.48046875 C-51.82904771 190.43940539 -47.75971896 176.32014533 -40.4375 164.375 C-30.72623576 150.54700418 -18.14737918 141.32509643 -2.4375 135.375 C-0.72820313 134.72337891 -0.72820313 134.72337891 1.015625 134.05859375 C30.68785383 124.84221964 66.26610601 132.44747883 93.2277832 146.46582031 C95.01375467 147.42123081 96.78852138 148.39750158 98.5625 149.375 C99.49320313 149.87773438 100.42390625 150.38046875 101.3828125 150.8984375 C120.15686478 161.55079945 133.95359034 177.63336244 139.87109375 198.4375 C145.16184882 220.91573623 141.55192373 243.76608203 129.5625 263.375 C109.14736814 294.36804975 71.73196495 315.12023706 35.93359375 322.59375 C26.20990141 324.50199159 16.4828981 326.09434913 6.5625 326.375 C5.27730469 326.41496094 3.99210937 326.45492188 2.66796875 326.49609375 C-43.229009 327.44120526 -81.80847525 309.52411792 -115.1875 278.84765625 C-141.20897647 253.76132659 -155.84893362 218.46425426 -156.640625 182.453125 C-156.6667775 179.84320499 -156.68517691 177.23489309 -156.6875 174.625 C-156.68817474 173.94103149 -156.68884949 173.25706299 -156.68954468 172.55236816 C-156.67095049 160.62636722 -155.87736763 149.07003478 -153.4375 137.375 C-153.27121094 136.57739258 -153.10492187 135.77978516 -152.93359375 134.95800781 C-143.58560288 92.07842745 -115.94365672 53.51478341 -80.9921875 27.53271484 C-79.64993638 26.53319305 -78.32339428 25.51263932 -77 24.48828125 C-66.29255675 16.51346675 -53.87981816 10.2118867 -41.25 5.9375 C-40.27450195 5.60383423 -40.27450195 5.60383423 -39.27929688 5.26342773 C-26.35595945 1.18328269 -13.47289726 -0.15405098 0 0 Z " fill="#FF0000" transform="translate(2518.4375,1037.625)"/>
</svg>
